<?xml version="1.0" encoding="UTF-8" standalone="no"?>
<!-- Created with Inkscape (http://www.inkscape.org/) -->

<svg
   version="1.1"
   id="svg2"
   width="409.99997"
   height="410"
   viewBox="0 -19 409.99997 410"
   xmlns="http://www.w3.org/2000/svg"
   xmlns:svg="http://www.w3.org/2000/svg">
  <link xmlns="http://www.w3.org/1999/xhtml" rel="stylesheet" href="logo.css" type="text/css" />
  <defs
     id="defs6" />
  <g
     id="g10"
     transform="matrix(1.3333333,0,0,-1.3333333,-131.26819,630.51325)">
    <circle
       style="fill-opacity:1"
       id="logo-background"
       transform="scale(1,-1)"
       cy="-333.38495"
       cx="252.20114"
       r="153.75" />
    <path
       d="m 139.26087,287.58509 c -12.22218,14.46908 -24.19101,28.63386 -36.73233,43.4774 4.51312,2.30017 8.38776,4.75778 12.61358,6.18127 1.63419,0.55105 4.34506,-0.83412 6.0792,-2.03842 13.18171,-9.14741 26.19113,-18.53746 39.40267,-27.63596 1.55113,-1.06815 4.61306,-1.84055 5.94722,-1.03837 23.15689,13.90947 46.15422,28.08921 70.10048,42.7689 -4.53647,7.50475 -8.31542,15.40104 -13.56262,22.15259 -20.65249,26.56353 -41.77094,52.76528 -62.69791,79.11386 -0.94892,1.19794 -1.72989,2.52786 -2.58525,3.79178 9.06868,6.57064 9.0602,6.55791 17.68214,0.81916 12.8668,-8.56653 25.85277,-16.96065 38.55152,-25.76983 3.60231,-2.49591 6.53661,-2.61506 10.03683,-0.45961 2.79384,1.72142 5.64083,3.36835 8.57077,4.83863 1.51289,0.76178 3.37047,1.73415 4.87269,1.46822 8.15373,-1.42992 8.06438,-9.49429 11.19657,-14.84992 2.14261,-3.66202 -0.89376,-5.99826 -3.88971,-7.7984 -0.77663,-0.46597 -1.42987,-1.14478 -2.42781,-1.9597 3.95134,-2.7513 7.39418,-5.59616 11.26032,-7.64095 1.65543,-0.87243 4.43228,-0.6682 6.27708,0.0849 4.44714,1.81923 8.59846,4.34283 12.95615,6.40259 3.87899,1.83621 7.13243,1.15963 9.21341,-2.95128 0.78307,-1.54697 1.65117,-3.05346 2.44276,-4.59821 4.97901,-9.69641 4.80245,-10.46025 -3.70031,-16.2756 7.21964,-7.90481 7.93885,-7.78352 17.35439,-3.50871 16.83735,7.64732 33.46614,16.06913 50.93966,21.87165 9.88575,3.28325 21.34615,3.06193 31.98517,2.45123 9.27294,-0.53195 11.64544,-6.4132 7.23238,-14.77333 -6.94089,-13.14982 -17.26495,-23.29304 -30.05092,-30.66801 -13.03713,-7.51968 -26.3955,-14.49254 -39.70698,-21.53129 -7.9452,-4.20236 -8.02394,-4.05346 -7.3707,-13.70308 1.27028,0.36816 2.44903,0.71924 3.63847,1.0512 0.73841,0.20637 1.48734,0.54895 2.23211,0.54683 8.76232,-0.0149 8.67932,-8.08571 11.61355,-13.18606 2.32141,-4.03857 0.45748,-7.43874 -3.62148,-9.53255 -1.02989,-0.5277 -2.06826,-1.04473 -3.10662,-1.55325 -14.00736,-6.89414 -14.00736,-6.89414 -13.16898,-21.86111 3.48748,-0.30427 8.45374,0.66605 9.86026,-1.14045 3.42998,-4.40035 5.5323,-9.97306 7.41541,-15.33941 0.43826,-1.24259 -1.77035,-4.07685 -3.4194,-5.23436 -2.9726,-2.08522 -6.30474,-3.90668 -9.7496,-5.02589 -4.96636,-1.615 -6.07706,-5.04926 -6.30899,-9.64744 -0.7724,-15.44575 -1.81715,-30.87869 -2.61296,-46.32233 -0.49578,-9.59638 -0.3787,-9.60066 -10.6454,-12.86684 -14.28608,40.7751 -19.26727,84.39935 -36.69827,124.51063 -21.35675,-8.55592 -41.75388,-16.6777 -62.10632,-24.906 -5.69185,-2.3023 -13.27752,-3.50446 -16.29257,-7.80475 -2.86407,-4.0811 -0.85756,-11.56247 -1.02988,-17.54589 -0.32772,-11.59653 -0.87879,-23.19306 -0.91073,-34.79172 -0.0127,-3.92366 -1.30647,-5.99189 -4.86842,-7.34303 -2.85338,-1.08092 -5.47055,-2.78747 -9.28566,-4.78972 -4.49605,18.53109 -8.87292,36.55781 -13.44568,55.40168 -11.00072,-1.95971 -22.02486,-3.92579 -33.04901,-5.88978 -0.36178,0.65752 -0.72134,1.31713 -1.0809,1.97673 8.05366,7.53878 16.10955,15.07766 24.65062,23.0718"
       id="logo-foreground" />
  </g>
</svg>
